<svg width="648" height="648" viewBox="0 0 648 648" fill="none" xmlns="http://www.w3.org/2000/svg">
<path d="M411.146 150.174H236.636C232.659 150.179 228.847 151.761 226.035 154.573C223.223 157.385 221.641 161.197 221.636 165.174V553.024L219.636 553.634L176.826 566.744C174.797 567.362 172.606 567.151 170.733 566.155C168.86 565.16 167.459 563.462 166.836 561.434L39.4961 145.484C38.8763 143.455 39.0876 141.263 40.0833 139.39C41.079 137.516 42.7777 136.115 44.8061 135.494L110.776 115.294L302.026 56.7538L367.996 36.5538C369 36.2448 370.055 36.1368 371.101 36.236C372.146 36.3353 373.162 36.6397 374.09 37.132C375.018 37.6243 375.84 38.2947 376.508 39.1049C377.177 39.9152 377.679 40.8493 377.986 41.8538L410.536 148.174L411.146 150.174Z" fill="#F2F2F2"/>
<path d="M449.226 148.174L409.996 20.0338C409.343 17.8988 408.276 15.9132 406.856 14.1907C405.436 12.4682 403.69 11.0424 401.718 9.99488C399.747 8.94734 397.588 8.29854 395.366 8.0856C393.143 7.87265 390.901 8.09972 388.766 8.75381L296.016 37.1438L104.776 95.6938L12.0264 124.094C7.7177 125.417 4.10998 128.395 1.99512 132.376C-0.119739 136.356 -0.568965 141.013 0.746067 145.324L134.826 583.254C135.894 586.734 138.05 589.78 140.976 591.945C143.903 594.11 147.446 595.28 151.086 595.284C152.771 595.285 154.447 595.032 156.056 594.534L219.636 575.074L221.636 574.454V572.364L219.636 572.974L155.466 592.624C151.663 593.783 147.555 593.387 144.044 591.521C140.533 589.656 137.905 586.474 136.736 582.674L2.66648 144.734C2.08757 142.851 1.8858 140.872 2.07273 138.911C2.25965 136.95 2.83158 135.045 3.7558 133.305C4.68002 131.565 5.93838 130.025 7.45878 128.772C8.97917 127.519 10.7318 126.578 12.6162 126.004L105.366 97.6038L296.606 39.0638L389.356 10.6638C390.786 10.2276 392.272 10.0052 393.766 10.0038C396.973 10.011 400.094 11.045 402.671 12.9542C405.248 14.8635 407.146 17.5478 408.086 20.6138L447.136 148.174L447.756 150.174H449.836L449.226 148.174Z" fill="#3F3D56"/>
<path d="M122.681 135.821C120.754 135.819 118.877 135.2 117.327 134.055C115.778 132.909 114.636 131.296 114.07 129.454L101.189 87.3823C100.843 86.2522 100.723 85.065 100.836 83.8884C100.949 82.7119 101.292 81.5691 101.846 80.5253C102.401 79.4815 103.156 78.5572 104.067 77.8051C104.979 77.053 106.03 76.4879 107.16 76.1421L283.099 22.2783C285.382 21.5818 287.847 21.8194 289.955 22.9388C292.062 24.0582 293.639 25.968 294.34 28.249L307.221 70.3213C307.917 72.6036 307.679 75.0689 306.559 77.1762C305.44 79.2835 303.531 80.8608 301.25 81.562L125.31 135.426C124.458 135.687 123.572 135.82 122.681 135.821V135.821Z" fill="#E06FF5"/>
<path d="M190.154 52.9547C201.199 52.9547 210.154 44.0003 210.154 32.9547C210.154 21.909 201.199 12.9547 190.154 12.9547C179.108 12.9547 170.154 21.909 170.154 32.9547C170.154 44.0003 179.108 52.9547 190.154 52.9547Z" fill="#E06FF5"/>
<path d="M190.154 45.6193C197.148 45.6193 202.818 39.9491 202.818 32.9547C202.818 25.9602 197.148 20.29 190.154 20.29C183.159 20.29 177.489 25.9602 177.489 32.9547C177.489 39.9491 183.159 45.6193 190.154 45.6193Z" fill="white"/>
<path d="M602.636 590.174H264.636C262.383 590.171 260.222 589.275 258.629 587.681C257.035 586.088 256.139 583.927 256.136 581.674V176.674C256.139 174.42 257.035 172.26 258.629 170.666C260.222 169.073 262.383 168.176 264.636 168.174H602.636C604.89 168.176 607.05 169.073 608.644 170.666C610.237 172.26 611.134 174.42 611.136 176.674V581.674C611.134 583.927 610.237 586.088 608.644 587.681C607.05 589.275 604.89 590.171 602.636 590.174V590.174Z" fill="#E6E6E6"/>
<path d="M447.136 148.174H236.636C232.13 148.18 227.809 149.973 224.622 153.16C221.436 156.347 219.643 160.667 219.636 165.174V572.974L221.636 572.364V165.174C221.641 161.197 223.223 157.385 226.035 154.573C228.847 151.761 232.659 150.179 236.636 150.174H447.756L447.136 148.174ZM630.636 148.174H236.636C232.13 148.18 227.809 149.973 224.622 153.16C221.436 156.347 219.643 160.667 219.636 165.174V623.174C219.643 627.681 221.436 632.001 224.622 635.188C227.809 638.374 232.13 640.167 236.636 640.174H630.636C635.143 640.167 639.463 638.374 642.65 635.188C645.837 632.001 647.63 627.681 647.636 623.174V165.174C647.63 160.667 645.837 156.347 642.65 153.16C639.463 149.973 635.143 148.18 630.636 148.174V148.174ZM645.636 623.174C645.631 627.151 644.049 630.963 641.237 633.775C638.425 636.587 634.613 638.169 630.636 638.174H236.636C232.659 638.169 228.847 636.587 226.035 633.775C223.223 630.963 221.641 627.151 221.636 623.174V165.174C221.641 161.197 223.223 157.385 226.035 154.573C228.847 151.761 232.659 150.179 236.636 150.174H630.636C634.613 150.179 638.425 151.761 641.237 154.573C644.049 157.385 645.631 161.197 645.636 165.174V623.174Z" fill="#3F3D56"/>
<path d="M525.636 192.174H341.636C339.25 192.171 336.963 191.222 335.275 189.535C333.588 187.848 332.639 185.56 332.636 183.174V139.174C332.639 136.788 333.588 134.5 335.276 132.813C336.963 131.126 339.25 130.177 341.636 130.174H525.636C528.023 130.177 530.31 131.126 531.997 132.813C533.685 134.5 534.634 136.788 534.636 139.174V183.174C534.634 185.56 533.685 187.848 531.997 189.535C530.31 191.222 528.023 192.171 525.636 192.174V192.174Z" fill="#E06FF5"/>
<path d="M433.636 133.174C444.682 133.174 453.636 124.22 453.636 113.174C453.636 102.128 444.682 93.1738 433.636 93.1738C422.591 93.1738 413.636 102.128 413.636 113.174C413.636 124.22 422.591 133.174 433.636 133.174Z" fill="#E06FF5"/>
<path d="M433.636 125.356C440.364 125.356 445.818 119.902 445.818 113.174C445.818 106.446 440.364 100.992 433.636 100.992C426.908 100.992 421.454 106.446 421.454 113.174C421.454 119.902 426.908 125.356 433.636 125.356Z" fill="white"/>
</svg>
